<svg width="58" height="58" viewBox="0 0 58 58" fill="none" xmlns="http://www.w3.org/2000/svg">
<circle cx="29" cy="29" r="29" fill="#F4F4F4"/>
<path d="M40.31 18.62C38.806 17.1266 37.0189 15.9487 35.0536 15.1553C33.0882 14.362 30.9842 13.9692 28.865 14C24.8868 13.99 21.0675 15.5608 18.2474 18.3669C15.4273 21.1729 13.8374 24.9842 13.8275 28.9625C13.8176 32.9407 15.3884 36.76 18.1944 39.5801C21.0004 42.4001 24.8118 43.99 28.79 44C29.6472 44.0146 30.4851 43.7441 31.1719 43.2309C31.8588 42.7178 32.3558 41.9911 32.585 41.165C32.7311 40.5683 32.7296 39.9451 32.5806 39.3492C32.4316 38.7533 32.1397 38.2027 31.73 37.745C31.6353 37.6372 31.5735 37.5045 31.5519 37.3626C31.5304 37.2207 31.55 37.0756 31.6084 36.9446C31.6668 36.8135 31.7616 36.7019 31.8816 36.6231C32.0015 36.5443 32.1415 36.5016 32.285 36.5H34.76C37.0894 36.5109 39.3367 35.6401 41.0507 34.0625C42.7646 32.4849 43.8182 30.3173 44 27.995C44.0558 26.2634 43.7573 24.5387 43.1228 22.9266C42.4882 21.3145 41.5311 19.849 40.31 18.62V18.62ZM21.26 33.11C20.8917 33.3603 20.4574 33.4957 20.0121 33.499C19.5669 33.5023 19.1306 33.3735 18.7586 33.1287C18.3866 32.884 18.0956 32.5343 17.9224 32.1241C17.7492 31.7138 17.7017 31.2614 17.7858 30.8242C17.8699 30.3869 18.0818 29.9844 18.3948 29.6676C18.7078 29.3509 19.1077 29.1341 19.544 29.0448C19.9802 28.9555 20.4332 28.9976 20.8454 29.1659C21.2577 29.3341 21.6108 29.6209 21.86 29.99C22.027 30.2337 22.144 30.5082 22.2042 30.7974C22.2644 31.0867 22.2667 31.385 22.2109 31.6752C22.1551 31.9653 22.0424 32.2415 21.8791 32.4878C21.7159 32.7341 21.5055 32.9455 21.26 33.11V33.11ZM23.45 24.875C23.2366 25.2702 22.9097 25.5926 22.5115 25.8005C22.1133 26.0084 21.662 26.0924 21.2156 26.0416C20.7693 25.9907 20.3484 25.8075 20.0071 25.5154C19.6658 25.2233 19.4198 24.8357 19.3007 24.4026C19.1816 23.9695 19.1948 23.5106 19.3388 23.0851C19.4827 22.6595 19.7507 22.2868 20.1083 22.0149C20.4659 21.743 20.8967 21.5844 21.3452 21.5595C21.7937 21.5345 22.2395 21.6444 22.625 21.875C23.1225 22.1725 23.4859 22.6505 23.6396 23.2094C23.7933 23.7683 23.7254 24.3649 23.45 24.875V24.875ZM27.5 21.5C27.055 21.5 26.62 21.368 26.25 21.1208C25.88 20.8735 25.5916 20.5221 25.4213 20.111C25.251 19.6999 25.2064 19.2475 25.2932 18.811C25.3801 18.3746 25.5943 17.9736 25.909 17.659C26.2237 17.3443 26.6246 17.13 27.061 17.0432C27.4975 16.9564 27.9499 17.0009 28.361 17.1712C28.7722 17.3415 29.1236 17.6299 29.3708 17.9999C29.618 18.3699 29.75 18.805 29.75 19.25C29.75 19.8467 29.5129 20.419 29.091 20.841C28.669 21.2629 28.0967 21.5 27.5 21.5V21.5ZM36.125 22.7C35.7395 22.9305 35.2937 23.0404 34.8452 23.0155C34.3967 22.9905 33.9659 22.8319 33.6083 22.56C33.2507 22.2881 32.9827 21.9154 32.8388 21.4899C32.6948 21.0644 32.6816 20.6055 32.8007 20.1723C32.9198 19.7392 33.1658 19.3516 33.5071 19.0596C33.8484 18.7675 34.2693 18.5842 34.7156 18.5334C35.162 18.4826 35.6133 18.5665 36.0115 18.7744C36.4097 18.9823 36.7366 19.3047 36.95 19.7C37.2254 20.21 37.2933 20.8067 37.1396 21.3656C36.9859 21.9244 36.6225 22.4025 36.125 22.7V22.7Z" fill="#F4B840"/>
</svg>
