<svg width="58" height="58" viewBox="0 0 58 58" fill="none" xmlns="http://www.w3.org/2000/svg">
<circle cx="29" cy="29" r="29" fill="#F4F4F4"/>
<g clip-path="url(#clip0_1_157)">
<path d="M38.93 11C38.0403 11 37.1842 11.3254 36.5295 11.9935L26.7767 21.9622L36.261 31.6398L46.0306 21.6882C47.3231 20.3521 47.3231 18.194 46.0306 16.8408L41.2633 11.9935C40.6086 11.3254 39.7693 11 38.93 11V11ZM25.1652 23.5894L15.1606 33.798C13.8512 35.134 13.8512 37.2922 15.1941 38.6796C13.1462 40.7864 11.0647 42.8932 9 45H18.501L19.9447 43.527C21.254 44.8287 23.3523 44.8116 24.6616 43.4927L34.6495 33.2841" fill="#F4B840"/>
</g>
<defs>
<clipPath id="clip0_1_157">
<rect width="36" height="36" fill="white" transform="translate(11 10)"/>
</clipPath>
</defs>
</svg>
