<svg width="58" height="58" viewBox="0 0 58 58" fill="none" xmlns="http://www.w3.org/2000/svg">
<circle cx="29" cy="29" r="29" fill="#F4F4F4"/>
<path d="M25.5 17V44M21 17H37.5C38.2956 17 39.0587 17.3161 39.6213 17.8787C40.1839 18.4413 40.5 19.2044 40.5 20V38C40.5 38.7956 40.1839 39.5587 39.6213 40.1213C39.0587 40.6839 38.2956 41 37.5 41H21C20.6022 41 20.2206 40.842 19.9393 40.5607C19.658 40.2794 19.5 39.8978 19.5 39.5V18.5C19.5 18.1022 19.658 17.7206 19.9393 17.4393C20.2206 17.158 20.6022 17 21 17V17Z" stroke="#F4B840" stroke-width="3" stroke-linecap="round" stroke-linejoin="round"/>
<path d="M31.5 23H34.5" stroke="#F4B840" stroke-width="3" stroke-linecap="round" stroke-linejoin="round"/>
<path d="M31.5 29H34.5" stroke="#F4B840" stroke-width="3" stroke-linecap="round" stroke-linejoin="round"/>
</svg>
