<svg width="58" height="58" viewBox="0 0 58 58" fill="none" xmlns="http://www.w3.org/2000/svg">
<circle cx="29" cy="29" r="29" fill="#F4F4F4"/>
<g clip-path="url(#clip0_1_156)">
<path d="M39.9215 11.3285C39.7105 11.1176 39.4244 10.9991 39.1261 10.9991C38.8278 10.9991 38.5417 11.1176 38.3307 11.3285L34.625 15.0343L42.9657 23.375L46.6715 19.6715C46.7763 19.567 46.8594 19.4429 46.9161 19.3062C46.9728 19.1695 47.002 19.023 47.002 18.875C47.002 18.7271 46.9728 18.5805 46.9161 18.4439C46.8594 18.3072 46.7763 18.183 46.6715 18.0785L39.9215 11.3285V11.3285ZM41.375 24.9658L33.0342 16.625L18.4092 31.25H18.875C19.1734 31.25 19.4595 31.3686 19.6705 31.5795C19.8815 31.7905 20 32.0767 20 32.375V33.5H21.125C21.4234 33.5 21.7095 33.6186 21.9205 33.8295C22.1315 34.0405 22.25 34.3267 22.25 34.625V35.75H23.375C23.6734 35.75 23.9595 35.8686 24.1705 36.0795C24.3815 36.2905 24.5 36.5767 24.5 36.875V38H25.625C25.9234 38 26.2095 38.1186 26.4205 38.3295C26.6315 38.5405 26.75 38.8267 26.75 39.125V39.5908L41.375 24.9658V24.9658ZM24.572 41.7688C24.5246 41.6429 24.5003 41.5095 24.5 41.375V40.25H23.375C23.0766 40.25 22.7905 40.1315 22.5795 39.9205C22.3685 39.7096 22.25 39.4234 22.25 39.125V38H21.125C20.8266 38 20.5405 37.8815 20.3295 37.6705C20.1185 37.4595 20 37.1734 20 36.875V35.75H18.875C18.5766 35.75 18.2905 35.6315 18.0795 35.4205C17.8685 35.2095 17.75 34.9234 17.75 34.625V33.5H16.625C16.4905 33.4998 16.3571 33.4754 16.2312 33.428L15.8285 33.8285C15.7213 33.9365 15.6371 34.0651 15.581 34.2065L11.081 45.4565C10.9992 45.661 10.9791 45.8849 11.0234 46.1007C11.0676 46.3164 11.1742 46.5144 11.3299 46.6701C11.4856 46.8258 11.6836 46.9324 11.8994 46.9766C12.1151 47.0209 12.339 47.0009 12.5435 46.919L23.7935 42.419C23.9349 42.3629 24.0635 42.2787 24.1715 42.1715L24.572 41.771V41.7688Z" fill="#F4B840"/>
</g>
<defs>
<clipPath id="clip0_1_156">
<rect width="36" height="36" fill="white" transform="translate(11 11)"/>
</clipPath>
</defs>
</svg>
